<svg width="120.000000" height="120.000000" viewBox="0 0 120 120" fill="none" xmlns="http://www.w3.org/2000/svg" xmlns:xlink="http://www.w3.org/1999/xlink">
	<desc>
			Created with Pixso.
	</desc>
	<rect rx="60.000000" width="120.000031" height="120.000000" fill="#F3BA2F"/>
	<path d="M49.4863 25.5142L32.2439 42.7564L42.7581 53.2719L60.002 36.0283L77.2441 53.2719L87.7585 42.7564L70.5161 25.5142L60.002 15L49.4863 25.5142ZM70.5161 94.4859L87.7585 77.2423L77.2441 66.7281L60.002 83.9704L42.7581 66.7281L32.2439 77.2423L49.4863 94.4859L60.002 105L70.5161 94.4859ZM15 59.9995L25.5142 49.4853L36.0283 59.9995L25.5142 70.5136L15 59.9995ZM83.9717 59.9997L94.4858 49.4856L105 59.9997L94.4858 70.5139L83.9717 59.9997Z" fill="#FFFFFF"/>
	<defs/>
</svg>
