<?xml version="1.0" standalone="no"?><!DOCTYPE svg PUBLIC "-//W3C//DTD SVG 1.1//EN" "http://www.w3.org/Graphics/SVG/1.1/DTD/svg11.dtd"><svg t="1664011239502" class="icon" viewBox="0 0 1024 1024" version="1.1" xmlns="http://www.w3.org/2000/svg" p-id="1821" xmlns:xlink="http://www.w3.org/1999/xlink" width="200" height="200"><path d="M682.709333 458.752a31.658667 31.658667 0 0 1-22.613333-9.386667L512 301.226667l-148.010667 148.010666a32.128 32.128 0 0 1-45.226666 0l-85.333334-85.333333a32.128 32.128 0 0 1 0-45.226667l256-256a32.128 32.128 0 0 1 45.226667 0l256 256a32.042667 32.042667 0 0 1 0 45.226667l-85.333333 85.333333a31.786667 31.786667 0 0 1-22.613334 9.514667z m-170.666666-234.666667a31.786667 31.786667 0 0 1 22.613333 9.386667l148.053333 148.053333 40.106667-40.149333-210.773333-210.773333-210.773334 210.773333 40.149334 40.149333 148.053333-148.053333a31.786667 31.786667 0 0 1 22.528-9.386667zM512 970.752a31.786667 31.786667 0 0 1-22.613333-9.386667l-256-256a32.128 32.128 0 0 1 0-45.226666l85.333333-85.333334a32.128 32.128 0 0 1 45.226667 0l148.053333 148.053334 148.053333-148.053334a32.128 32.128 0 0 1 45.226667 0l85.333333 85.333334a32.042667 32.042667 0 0 1 0 45.226666l-256 256a31.786667 31.786667 0 0 1-22.613333 9.386667z m-170.666667-328.149333l-40.106666 40.149333 210.773333 210.773333 210.773333-210.773333-40.106666-40.149333-148.053334 148.053333a32.213333 32.213333 0 0 1-45.226666 0L341.333333 642.602667zM842.794667 640.085333a31.658667 31.658667 0 0 1-22.613334-9.386666l-96.085333-96.128a32.085333 32.085333 0 0 1 0-45.184l96-96a32.085333 32.085333 0 0 1 45.184 0l96 96a32.085333 32.085333 0 0 1 0 45.184l-96 96a31.616 31.616 0 0 1-22.485333 9.514666z m0-178.773333l-50.901334 50.773333 50.901334 50.688 50.688-50.688-50.688-50.901333zM181.461333 640.085333a31.658667 31.658667 0 0 1-22.613333-9.386666l-96.085333-96.128a32.085333 32.085333 0 0 1 0-45.184l96-96a32.085333 32.085333 0 0 1 45.184 0l96 96a32.085333 32.085333 0 0 1 0 45.184l-96 96a31.616 31.616 0 0 1-22.485334 9.514666z m0-178.773333l-50.901333 50.773333 50.901333 50.688 50.688-50.688-50.688-50.901333z" p-id="1822" fill="#efb90b"></path><path d="M511.957333 649.770667a31.914667 31.914667 0 0 1-22.613333-9.386667L383.573333 534.613333a32.128 32.128 0 0 1 0-45.226666l105.898667-105.813334a32.128 32.128 0 0 1 45.226667 0l105.728 105.898667a32.213333 32.213333 0 0 1 0 45.226667l-105.813334 105.813333a33.450667 33.450667 0 0 1-22.656 9.258667z m0-198.4l-60.586666 60.586666 60.586666 60.586667 60.586667-60.586667-60.586667-60.586666z" p-id="1823" fill="#efb90b"></path></svg>