<?xml version="1.0" standalone="no"?><!DOCTYPE svg PUBLIC "-//W3C//DTD SVG 1.1//EN" "http://www.w3.org/Graphics/SVG/1.1/DTD/svg11.dtd"><svg t="1664005731222" class="icon" viewBox="0 0 1024 1024" version="1.1" xmlns="http://www.w3.org/2000/svg" p-id="6824" xmlns:xlink="http://www.w3.org/1999/xlink" width="200" height="200"><path d="M314.887642 595.122308c-3.627303 2.506507-6.08796 4.488279-8.798249 6.04211-36.782488 21.116816-73.697433 42.019662-110.347463 63.386109-7.529711 4.396577-13.806169 5.125095-21.565134 0.560398-14.926965-8.777871-31.025672-10.627184-48.077055-6.750248-34.551085 7.855761-58.204975 46.441711-49.218229 81.002985 9.806965 37.684219 47.837612 59.916736 83.529871 48.790288 30.658866-9.562428 46.258308-31.076617 48.336876-62.499661 0.631721-9.547144 4.289592-15.283582 12.629333-20.006209 40.909055-23.154627 81.563383-46.747383 122.146388-70.492976 7.733493-4.518846 14.44808-5.170945 22.823483-1.258348 19.002587 8.88995 39.727124 12.858587 59.972776 8.268418 18.253692-4.136756 33.516896-1.441751 49.641074 6.903085 8.706547 4.498468 11.564577 9.317891 11.513632 18.651064-0.336239 62.983642-0.509453 125.977473 0.050946 188.95602 0.101891 11.854965-3.133134 18.966925-13.439364 25.620378-30.597731 19.756577-38.137632 61.271881-17.963303 91.67602 20.439244 30.821891 61.873035 39.446925 92.536995 19.272597 41.668139-27.418746 40.562627-87.371144-2.216119-113.490786-5.654925-3.45409-10.163582-6.464955-10.127921-14.417512 0.290388-64.751443 0.254726-129.50798 0.050945-194.259423-0.025473-7.081393 2.766328-10.245095 9.399403-11.437214 11.116259-1.997055 22.308935-3.82599 33.180657-6.780816 9.924139-2.7001 19.002587-2.954826 28.870687 0.932299 25.503204 10.031124 50.675264 8.156338 74.446328-5.542846 7.743682-4.457711 13.734846-4.055244 21.34607 0.448318a4459.219423 4459.219423 0 0 0 97.453214 56.044896c9.69998 5.415483 14.055801 11.9161 14.22392 23.455204 0.417751 30.113751 26.29795 57.88402 55.886965 61.694726 30.577353 3.932975 58.485174-11.090786 71.435463-38.448398 12.17592-25.747741 6.082866-56.595104-15.186786-76.881512-20.958886-19.99602-51.689075-23.87805-78.491383-9.052975-7.5399 4.172418-13.322189 3.876935-20.530946-0.376996-30.735284-18.141612-61.592836-36.120199-92.776437-53.492537-8.492577-4.732816-11.472876-9.292418-8.813533-19.303164 7.840478-29.431085 2.272159-56.437174-16.154746-81.150726-12.644617-16.954587-23.816915-34.999403-35.814527-52.443065-5.145473-7.49405-3.820896-12.522348 4.19789-17.107423a26948.134209 26948.134209 0 0 0 150.629891-86.902448c6.444577-3.739383 11.768358-4.15204 18.472756-0.066229 16.903642 10.316418 35.091104 11.890627 54.052935 6.062488 30.154507-9.261851 50.721114-41.673234 45.891503-72.704-5.196418-33.415005-34.428816-59.218786-66.493771-58.704239-36.965891 0.590965-65.566567 28.814647-66.549811 66.177911-0.203781 7.794627-2.297632 13.159164-9.475821 17.255164a22725.682945 22725.682945 0 0 0-154.262289 89.179701c-6.164378 3.591642-10.372458 3.336915-15.742089-1.681194-24.51996-22.925373-53.686129-36.26794-87.090946-39.798447-9.322985-0.983244-12.124975-5.114905-12.074029-14.422607 0.356617-61.210746 0.320955-122.431682-0.091702-183.637334-0.071323-10.749453 3.464279-17.774806 12.547821-23.60804 25.645851-16.475701 36.171144-46.273592 27.357612-74.930308a66.544716 66.544716 0 0 0-63.579702-47.16004c-30.587542-0.122269-55.856398 18.126328-64.78201 46.772856-9.424876 30.251303 1.660816 59.758806 29.176359 77.080199 5.522468 3.479562 10.418308 6.424199 10.392835 14.381851-0.21397 67.227383 0.035662 134.459861-0.412656 201.692338-0.025473 4.218269-3.744478 9.924139-7.448199 12.338945-16.205692 10.596617-32.997254 20.306786-49.661453 30.195264-16.409473 9.740736-35.136955 14.06599-51.643224 5.094527-53.726886-29.186547-106.373731-60.385433-159.397572-90.86599-6.57194-3.775045-9.638846-9.037692-9.837532-17.255164-1.171741-47.796856-45.086567-72.810985-78.664597-65.016358-27.907821 6.475144-46.670965 22.14591-53.441592 49.722587-6.74006 27.505353 1.579303 51.561711 24.071641 68.898388 22.446488 17.301015 47.526846 19.216557 72.678528 5.843423 8.283701-4.396577 14.519403-4.335443 22.431204 0.3719 26.415124 15.7319 53.232716 30.781134 79.851622 46.166607 18.564458 10.729075 37.052498 21.575323 57.07399 33.246886-46.757572 49.146905-51.5719 102.588498-18.136518 159.759283m648.961274-298.574965c-0.005095 29.487124-12.023085 52.769114-36.792677 68.786309-7.769154 5.023204-10.601711 10.708697-10.560955 19.93998 0.336239 83.152876 0.356617 166.305751 0.020378 249.458627-0.040756 9.582806 2.80199 15.309055 11.004179 20.653214 36.558328 23.827104 47.868179 72.882308 25.992279 109.450826-23.027264 38.489154-70.457313 52.631562-109.532338 31.968159-7.967841-4.213174-14.111841-3.968637-21.580418 0.356617a54226.179821 54226.179821 0 0 1-219.57413 126.634666c-7.499144 4.299781-8.100299 10.616995-8.579184 17.881791-2.481035 37.862527-29.181453 68.898388-65.434109 76.382249-47.964975 9.893572-94.075542-23.460299-98.410985-72.128318-1.161552-12.950289-6.047204-20.53604-17.509891-27.031563-70.421652-39.900338-140.44593-80.51391-210.393791-121.249751-8.217473-4.783761-14.575443-5.206607-23.302368-0.748895-39.727124 20.311881-86.566209 6.286647-108.605134-31.682866-22.084776-38.061214-11.162109-85.53202 25.997373-110.169154 8.395781-5.568318 11.513632-11.839682 11.47797-21.789294a31001.834348 31001.834348 0 0 1-0.020378-246.269452c0.040756-9.975085-3.021055-16.282109-11.53401-21.733254-29.298627-18.768239-41.978905-50.33393-35.35602-85.53202C67.196816 247.69592 92.109055 223.400119 124.928 216.308537c19.970547-4.320159 38.667463-1.844219 56.26396 8.064637 6.622886 3.7241 11.972139 3.754667 18.630687-0.096796 72.184358-41.805692 144.424756-83.524776 216.924975-124.775164 9.781493-5.563224 12.634428-13.133692 13.189731-23.195383C432.367443 31.657393 474.071244-3.49994 521.934328 1.334766c36.405493 3.683343 69.244816 36.354547 71.883781 73.743284 0.947582 13.42408 7.015164 20.729632 18.197652 27.097791 70.029373 39.864677 139.793831 80.182766 209.446209 120.714826 8.344836 4.860179 14.926965 4.834706 23.567284 0.54002 55.438647-27.566488 118.468139 11.427025 118.804378 73.116656" fill="#2583FF" p-id="6825"></path><path d="M334.990647 522.535483c0.224159-46.497751 37.393831-85.542209 84.161592-86.515264 14.534687-0.305672 25.279045-4.656398 35.870567-14.213731 53.477254-48.34197 127.551682-29.899781 164.298507 11.96195 13.383323 15.258109 21.183045 33.440478 25.100737 53.023841 2.007244 9.995463 7.117055 16.282109 15.222448 21.590607 20.199801 13.215204 31.433234 32.492896 29.273154 56.309811-2.496318 27.479881-16.195502 48.917652-44.052378 57.884019-16.292299 5.242269-32.905552 5.216796-48.29612-3.316537-7.575562-4.187701-14.417512-4.243741-22.196855-1.161552-35.743204 14.172975-70.503164 12.247244-103.617593-7.784438-7.998408-4.844896-15.507741-5.17604-24.183721-2.68991-56.6919 16.220975-111.870726-25.961711-111.580338-85.088796M882.112318 704.649552c10.912478 0.27001 19.960358 9.348458 19.557891 19.613931-0.397373 10.031124-10.326607 19.02806-20.724537 18.768238-10.606806-0.27001-18.610308-8.589373-18.523702-19.262408 0.086607-11.335323 8.390687-19.394866 19.690348-19.119761M492.401353 82.118687c0.860975-10.78002 10.158488-18.528796 21.162667-17.627065 11.100975 0.901731 18.656159 9.985274 17.514985 21.055681-1.069851 10.260378-10.428498 18.31992-20.342448 17.504797-10.469254-0.855881-19.145234-10.764736-18.340298-20.933413M881.388896 315.840318c-10.729075-0.030567-18.666348-7.896517-18.824279-18.64597-0.168119-11.401552 7.728398-19.333731 19.206368-19.298069 10.764736 0.035662 19.960358 8.905234 19.899224 19.191084-0.05604 10.459065-9.063164 18.783522-20.281313 18.747861M161.114428 297.026229c-0.152836 11.080597-7.718209 18.773333-18.518607 18.839562-11.844776 0.076418-20.510567-8.40597-20.1081-19.680159 0.387184-10.759642 9.124299-18.574647 20.444339-18.268975 10.800398 0.290388 18.340299 8.212378 18.187462 19.104477M511.475264 917.993075c10.764736-0.142647 19.970547 8.61994 19.868656 18.926169-0.106985 11.034746-8.344836 18.966925-19.629214 18.91598-11.269095-0.05604-19.262408-8.059542-19.221651-19.24203 0.040756-10.224716 8.446726-18.462567 18.982209-18.600119M142.351284 704.72597c10.6119-0.030567 18.574647 7.871045 18.758049 18.60012 0.188498 11.197771-8.120677 19.8279-18.992398 19.72601-10.871721-0.091701-19.619025-8.777871-19.578268-19.420339 0.045851-10.871721 8.436537-18.875224 19.812617-18.905791" fill="#2583FF" p-id="6826"></path></svg>