<svg xmlns="http://www.w3.org/2000/svg" version="1.1" xmlns:xlink="http://www.w3.org/1999/xlink" xmlns:svgjs="http://svgjs.dev/svgjs" width="2000" height="676" viewBox="0 0 2000 676"><g transform="matrix(1,0,0,1,-1.2121212121212466,0.2780169132101378)"><svg xmlns="http://www.w3.org/2000/svg" version="1.1" xmlns:xlink="http://www.w3.org/1999/xlink" xmlns:svgjs="http://svgjs.com/svgjs" viewBox="0 0 396 134" data-background-color="#fdf8f1" preserveAspectRatio="xMidYMid meet" height="676" width="2000"><defs></defs><g id="tight-bounds" transform="matrix(1,0,0,1,0.2400000000000091,-0.05510986149431574)"><svg viewBox="0 0 395.52 134.1102197229886" height="134.1102197229886" width="395.52"><g><svg viewBox="0 0 632.572961052468 214.48851839999998" height="134.1102197229886" width="395.52"><g transform="matrix(1,0,0,1,237.05296105246802,59.45362683485476)"><svg viewBox="0 0 395.52 95.58126473029046" height="95.58126473029046" width="395.52"><g><svg viewBox="0 0 395.52 95.58126473029046" height="95.58126473029046" width="395.52"><g><svg viewBox="0 0 395.52 95.58126473029046" height="95.58126473029046" width="395.52"><g transform="matrix(1,0,0,1,0,0)"><svg width="395.52" viewBox="3.61 -35.55 147.08999999999997 35.55" height="95.58126473029046" data-palette-color="#fa4238"><path d="M13.84 0L3.61 0 3.61-35.55 14.11-35.55Q18.82-35.55 22.47-33.45 26.12-31.35 28.13-27.49 30.13-23.63 30.13-18.65L30.13-18.65 30.13-16.87Q30.13-11.82 28.11-7.98 26.1-4.15 22.38-2.08 18.65 0 13.84 0L13.84 0ZM14.11-30.57L9.79-30.57 9.79-4.93 13.82-4.93Q18.68-4.93 21.28-7.97 23.88-11.01 23.93-16.7L23.93-16.7 23.93-18.68Q23.93-24.46 21.41-27.51 18.9-30.57 14.11-30.57L14.11-30.57ZM57.05-20.75L57.05-15.87 42.45-15.87 42.45-4.93 59.52-4.93 59.52 0 36.28 0 36.28-35.55 59.35-35.55 59.35-30.57 42.45-30.57 42.45-20.75 57.05-20.75ZM70.72-35.55L70.72-4.93 86.86-4.93 86.86 0 64.55 0 64.55-35.55 70.72-35.55ZM114.86 0L111.96-8.28 98.19-8.28 95.31 0 88.88 0 102.31-35.55 107.85-35.55 121.31 0 114.86 0ZM105.07-28L99.92-13.26 110.22-13.26 105.07-28ZM138.3 0L125.33 0 125.33-35.55 137.51-35.55Q143.54-35.55 146.69-33.13 149.84-30.71 149.84-25.93L149.84-25.93Q149.84-23.49 148.53-21.53 147.21-19.58 144.67-18.51L144.67-18.51Q147.55-17.72 149.12-15.56 150.7-13.4 150.7-10.38L150.7-10.38Q150.7-5.37 147.49-2.69 144.28 0 138.3 0L138.3 0ZM138.88-16.04L131.51-16.04 131.51-4.93 138.37-4.93Q141.27-4.93 142.91-6.37 144.55-7.81 144.55-10.38L144.55-10.38Q144.55-15.92 138.88-16.04L138.88-16.04ZM131.51-30.57L131.51-20.58 137.56-20.58Q140.44-20.58 142.07-21.89 143.69-23.19 143.69-25.59L143.69-25.59Q143.69-28.22 142.19-29.39 140.69-30.57 137.51-30.57L137.51-30.57 131.51-30.57Z" opacity="1" transform="matrix(1,0,0,1,0,0)" fill="#fa4238" class="undefined-text-0" data-fill-palette-color="primary" id="text-0"></path></svg></g></svg></g></svg></g></svg></g><g><svg viewBox="0 0 214.48851839999998 214.48851839999998" height="214.48851839999998" width="214.48851839999998"><g><svg xmlns="http://www.w3.org/2000/svg" version="1.1" xmlns:xlink="http://www.w3.org/1999/xlink" xmlns:svgjs="http://svgjs.com/svgjs"></svg></g><g id="icon-0"><svg viewBox="0 0 214.48851839999998 214.48851839999998" height="214.48851839999998" width="214.48851839999998"><g><rect width="195.02567136" height="195.02567136" x="9.731423519999993" y="9.731423519999993" fill="#fa4238" data-fill-palette-color="accent"></rect><rect width="195.02567136" height="195.02567136" x="19.462847039999993" y="-5.329070518200751e-15" fill="#fa4238" opacity="0.5" data-fill-palette-color="accent"></rect></g><g transform="matrix(1,0,0,1,27.80406719999999,29.909619703584156)"><svg viewBox="0 0 158.880384 154.66927899283166" height="154.66927899283166" width="158.880384"><g><svg xmlns="http://www.w3.org/2000/svg" data-name="Layer 1" viewBox="11.98347030729579 10.972276234430588 108.01652969270421 105.15356487858409" x="0" y="0" height="154.66927899283166" width="158.880384" class="icon-symbol-0" data-fill-palette-color="background" id="symbol-0"><path d="M80 60a2 2 0 0 0 1.07-3.69l-22-14a2 2 0 0 0-2.14 0l-22 14A2 2 0 0 0 36 60h4V80H37a2 2 0 0 0 0 4H79a2 2 0 0 0 0-4H76V60ZM56 80H44V60H56Zm16 0H60V60H72ZM42.87 56L58 46.37 73.13 56Z" fill="#fdf8f1" data-fill-palette-color="background"></path><path d="M28.87 49.25L33 51.71A1.94 1.94 0 0 0 34 52a2 2 0 0 0 1-3.71L31.17 46A9.94 9.94 0 0 0 32 42a9.65 9.65 0 0 0-0.26-2.23L66.55 26.32A10 10 0 1 0 65 21a9.19 9.19 0 0 0 0.14 1.58L30.08 36.13a10 10 0 1 0-1.21 13.12ZM75 15a6 6 0 1 1-6 6A6 6 0 0 1 75 15ZM16 42a6 6 0 1 1 6 6A6 6 0 0 1 16 42Z" fill="#fdf8f1" data-fill-palette-color="background"></path><path d="M110 40a10 10 0 0 0-10 10c0 0.15 0 0.3 0 0.46L86.48 54.07A2 2 0 0 0 87 58a1.91 1.91 0 0 0 0.52-0.07L101 54.34a10.07 10.07 0 0 0 4.92 4.78l-6.54 29A10.43 10.43 0 0 0 98 88a12 12 0 0 0-10.13 5.59L79 88.29A2 2 0 0 0 77 91.71l9.34 5.61A11.84 11.84 0 0 0 86 100a12 12 0 1 0 17.23-10.78L109.83 60H110a10 10 0 0 0 0-20Zm-4 60a8 8 0 1 1-8-8A8 8 0 0 1 106 100Zm4-44a6 6 0 1 1 6-6A6 6 0 0 1 110 56Z" fill="#fdf8f1" data-fill-palette-color="background"></path><path d="M42.59 88.59l-4.87 4.86A12.11 12.11 0 1 0 40.88 96l4.53-4.54a2 2 0 0 0-2.82-2.82ZM32 112a8 8 0 1 1 8-8A8 8 0 0 1 32 112Z" fill="#fdf8f1" data-fill-palette-color="background"></path></svg></g></svg></g></svg></g></svg></g></svg></g></svg><rect width="395.52" height="134.1102197229886" fill="none" stroke="none" visibility="hidden"></rect></g></svg></g></svg>